<svg xmlns="http://www.w3.org/2000/svg" xmlns:xlink="http://www.w3.org/1999/xlink" viewBox="0 0 178.56 102.02"><defs><style>.cls-1{fill:url(#Gradient_bez_nazwy_4);}.cls-2{fill:url(#Gradient_bez_nazwy_4-2);}.cls-3{fill:url(#Gradient_bez_nazwy_4-3);}.cls-4{fill:url(#Gradient_bez_nazwy_4-4);}.cls-5{fill:url(#Gradient_bez_nazwy_4-5);}.cls-6{fill:url(#Gradient_bez_nazwy_4-6);}.cls-7{fill:#204b66;}.cls-8{fill:url(#Gradient_bez_nazwy_4-7);}</style><linearGradient id="Gradient_bez_nazwy_4" y1="42.9" x2="62.31" y2="42.9" gradientUnits="userSpaceOnUse"><stop offset="0" stop-color="#f3a015"/><stop offset="1" stop-color="#af161e"/></linearGradient><linearGradient id="Gradient_bez_nazwy_4-2" y1="50.95" x2="86.94" y2="50.95" xlink:href="#Gradient_bez_nazwy_4"/><linearGradient id="Gradient_bez_nazwy_4-3" x1="148.05" y1="0.76" x2="80.02" y2="54.1" xlink:href="#Gradient_bez_nazwy_4"/><linearGradient id="Gradient_bez_nazwy_4-4" x1="156.66" y1="11.74" x2="88.63" y2="65.08" xlink:href="#Gradient_bez_nazwy_4"/><linearGradient id="Gradient_bez_nazwy_4-5" x1="172.59" y1="32.06" x2="104.55" y2="85.39" xlink:href="#Gradient_bez_nazwy_4"/><linearGradient id="Gradient_bez_nazwy_4-6" x1="180.23" y1="41.81" x2="112.2" y2="95.14" xlink:href="#Gradient_bez_nazwy_4"/><linearGradient id="Gradient_bez_nazwy_4-7" x1="173.86" y1="33.68" x2="105.83" y2="87.02" xlink:href="#Gradient_bez_nazwy_4"/></defs><g id="Layer_2" data-name="Layer 2"><g id="Layer_1-2" data-name="Layer 1"><path class="cls-1" d="M62.31,81.65H1.44a1.42,1.42,0,0,1-1-.4,1.43,1.43,0,0,1-.42-1V5.59a1.42,1.42,0,0,1,.42-1,1.36,1.36,0,0,1,1-.42h2.1L15.35,19.54V66.42H50.49l0,.06Z"/><path class="cls-2" d="M86.17,24.34,65.66,50.94,86.21,77.6A4,4,0,0,1,86.94,80V101.9H1.4a1.37,1.37,0,0,1-1-.4,1.33,1.33,0,0,1-.41-1V87.13H45.73l0,0H74L46.18,50.94,74,14.73H17.89L6.58,0H86.94V21.89A4,4,0,0,1,86.17,24.34Z"/><path class="cls-3" d="M90.54,48.94v-.22q3-.61,3-3.34V39.32q0-5.7-5.61-5.7h-7.2V65.13h8.46c3.19,0,4.79-1.56,4.79-4.7v-7.9C94,50.78,92.84,49.58,90.54,48.94ZM85,37.44h2.5c1.26,0,1.89.76,1.89,2.29v4.91c0,1.52-.81,2.27-2.42,2.27H85ZM89.79,60c0,.91-.56,1.36-1.67,1.36H85V50.73h2.33c1.67,0,2.5.75,2.5,2.24Z"/><path class="cls-4" d="M112.47,52c1.67-.74,2.51-2.47,2.51-5.22V39c0-3.59-1.61-5.4-4.83-5.4H101.9V65.13h4.21V52.4h2.54l2.77,12.73h4Zm-1.71-5.49c0,1.52-.62,2.29-1.88,2.29h-2.77V37.44h2.77c1.26,0,1.88.76,1.88,2.29Z"/><polygon class="cls-5" points="152.75 48.85 148.24 33.62 144.02 33.62 144.02 65.13 148.24 65.13 148.24 44.51 152.75 58.85 152.75 65.13 156.97 65.13 156.97 33.62 152.75 33.62 152.75 48.85"/><path class="cls-6" d="M172.63,33.62h-7.32V65.13h8.2c3.36,0,5.05-1.52,5.05-4.57V39.68Q178.56,33.62,172.63,33.62Zm1.72,26.28c0,1-.56,1.41-1.67,1.41h-3.16V37.44h2.93c1.26,0,1.9.76,1.9,2.29Z"/><polygon class="cls-7" points="111.06 70.5 106.85 70.5 106.85 102.01 116.85 102.01 116.85 98.19 111.06 98.19 111.06 70.5"/><polygon class="cls-7" points="149.28 94.55 145.85 70.5 141.68 70.5 146.78 102.01 151.78 102.01 156.87 70.5 152.7 70.5 149.28 94.55"/><polygon class="cls-8" points="137.84 65.14 132.69 65.14 131.79 65.13 131.37 65.13 131.37 102.02 127.16 102.02 127.16 65.13 126.74 65.13 125.84 65.14 120.7 65.14 129.27 33.63 137.84 65.14"/><polygon class="cls-7" points="166.74 102.01 177.19 102.01 177.19 98.19 170.96 98.19 170.96 87.71 176.49 87.71 176.49 83.89 170.96 83.89 170.96 74.32 177.19 74.32 177.19 70.5 166.74 70.5 166.74 102.01"/></g></g></svg>